<svg width="160" height="160" viewBox="0 0 160 160" fill="none" xmlns="http://www.w3.org/2000/svg">
<path d="M0 57C0 37.0481 0 27.0722 3.88289 19.4516C7.29838 12.7483 12.7483 7.29838 19.4516 3.88289C27.0722 0 37.0481 0 57 0H103C122.952 0 132.928 0 140.548 3.88289C147.252 7.29838 152.702 12.7483 156.117 19.4516C160 27.0722 160 37.0481 160 57V103C160 122.952 160 132.928 156.117 140.548C152.702 147.252 147.252 152.702 140.548 156.117C132.928 160 122.952 160 103 160H57C37.0481 160 27.0722 160 19.4516 156.117C12.7483 152.702 7.29838 147.252 3.88289 140.548C0 132.928 0 122.952 0 103V57Z" fill="white"/>
<path d="M35.7898 39.3073C35.7806 39.0344 35.776 38.7604 35.776 38.4853C35.776 25.1696 46.5706 14.375 59.8864 14.375C73.2022 14.375 83.9967 25.1696 83.9967 38.4853C83.9967 51.8011 73.2022 62.5957 59.8864 62.5957C59.6113 62.5957 59.3373 62.5911 59.0644 62.5819L59.0644 62.5957L35.776 62.5957L35.776 39.3073L35.7898 39.3073Z" fill="url(#paint0_linear_9874_7621)"/>
<path d="M78.3576 56.7493C78.8571 56.7326 79.3587 56.7241 79.8623 56.7241C104.239 56.7241 124 76.4854 124 100.862C124 125.239 104.239 145 79.8623 145C55.4856 145 35.7244 125.239 35.7244 100.862C35.7244 100.358 35.7328 99.8569 35.7495 99.3574L35.7244 99.3574L35.7244 56.7241L78.3576 56.7241L78.3576 56.7493Z" fill="url(#paint1_linear_9874_7621)"/>
<path d="M97.9783 101C99.5937 101 100.89 102.443 100.553 104.103C98.5611 113.932 90.2517 121.303 80.3034 121.303C70.3552 121.303 62.0458 113.932 60.0535 104.103C59.717 102.443 61.0132 101 62.6286 101C64.0746 101 65.2543 102.171 65.6241 103.64C67.3432 110.469 73.2638 115.502 80.3034 115.502C87.343 115.502 93.2637 110.469 94.9828 103.64C95.3526 102.171 96.5323 101 97.9783 101Z" fill="white"/>
<defs>
<linearGradient id="paint0_linear_9874_7621" x1="78.6196" y1="23.4483" x2="35.8609" y2="57.931" gradientUnits="userSpaceOnUse">
<stop stop-color="#002ABE"/>
<stop offset="1" stop-color="#192E78"/>
</linearGradient>
<linearGradient id="paint1_linear_9874_7621" x1="124.237" y1="107.586" x2="35.9614" y2="80" gradientUnits="userSpaceOnUse">
<stop stop-color="#7086FF"/>
<stop offset="1" stop-color="#3957F8"/>
</linearGradient>
</defs>
</svg>
